<svg width="26" height="29" viewBox="0 0 26 29" fill="none" xmlns="http://www.w3.org/2000/svg">
<g opacity="0.9">
<g filter="url(#filter0_d_622_72)">
<path d="M12.9801 19.4262C17.0726 19.4262 20.3903 16.1085 20.3903 12.0159C20.3903 7.92336 17.0726 4.60568 12.9801 4.60568C8.8875 4.60568 5.56982 7.92336 5.56982 12.0159C5.56982 16.1085 8.8875 19.4262 12.9801 19.4262Z" fill="#5E60CE"/>
<path d="M12.9643 4.85957C14.3765 4.85957 15.7571 5.27835 16.9313 6.06296C18.1056 6.84757 19.0208 7.96276 19.5612 9.26752C20.1017 10.5723 20.2431 12.008 19.9676 13.3931C19.6921 14.7782 19.012 16.0505 18.0134 17.0492C17.0148 18.0478 15.7424 18.7278 14.3573 19.0034C12.9722 19.2789 11.5365 19.1375 10.2317 18.597C8.92697 18.0566 7.81178 17.1414 7.02717 15.9671C6.24257 14.7929 5.82378 13.4123 5.82378 12.0001C5.8311 10.1085 6.58574 8.29657 7.92326 6.95905C9.26079 5.62153 11.0728 4.86688 12.9643 4.85957V4.85957ZM12.9643 3.27279C11.2397 3.27985 9.55592 3.79768 8.12543 4.76093C6.69494 5.72417 5.58191 7.08964 4.92683 8.68495C4.27176 10.2803 4.10401 12.0339 4.44478 13.7245C4.78554 15.415 5.61954 16.9667 6.84148 18.1837C8.06342 19.4006 9.61852 20.2283 11.3105 20.5622C13.0024 20.896 14.7553 20.7211 16.348 20.0595C17.9406 19.398 19.3015 18.2794 20.2589 16.8449C21.2163 15.4105 21.7272 13.7246 21.7273 12.0001C21.7273 10.851 21.5003 9.71319 21.0595 8.65202C20.6187 7.59084 19.9727 6.62716 19.1585 5.81629C18.3443 5.00542 17.378 4.36332 16.315 3.92684C15.2521 3.49036 14.1134 3.26809 12.9643 3.27279V3.27279Z" fill="#5E60CE"/>
<path d="M16.4306 9.34212L12.0986 13.6741L9.61618 11.1916L8.78027 12.0275L12.0986 15.3459L17.2665 10.178L16.4306 9.34212Z" fill="#F2F2F2"/>
</g>
</g>
<defs>
<filter id="filter0_d_622_72" x="0.272705" y="3.27272" width="25.4546" height="25.4545" filterUnits="userSpaceOnUse" color-interpolation-filters="sRGB">
<feFlood flood-opacity="0" result="BackgroundImageFix"/>
<feColorMatrix in="SourceAlpha" type="matrix" values="0 0 0 0 0 0 0 0 0 0 0 0 0 0 0 0 0 0 127 0" result="hardAlpha"/>
<feOffset dy="4"/>
<feGaussianBlur stdDeviation="2"/>
<feComposite in2="hardAlpha" operator="out"/>
<feColorMatrix type="matrix" values="0 0 0 0 0 0 0 0 0 0 0 0 0 0 0 0 0 0 0.25 0"/>
<feBlend mode="normal" in2="BackgroundImageFix" result="effect1_dropShadow_622_72"/>
<feBlend mode="normal" in="SourceGraphic" in2="effect1_dropShadow_622_72" result="shape"/>
</filter>
</defs>
</svg>
